<svg width="100" height="100" version="1.1" xmlns="http://www.w3.org/2000/svg"
    desc="Created with imagetracer.js version 1.2.6">
    <path fill="rgb(5,130,0)" stroke="rgb(5,130,0)" stroke-width="1" opacity="0.9725490196078431"
        d="M 45.5 8 L 54.5 8 L 63.5 10 Q 74.8 14.2 82 22.5 L 90 36.5 L 92 45.5 L 92 54.5 Q 88.9 72.4 77.5 82 L 63.5 90 L 54.5 92 L 45.5 92 Q 27.6 88.9 18 77.5 L 10 63.5 L 8 54.5 L 8 45.5 Q 11.1 27.6 22.5 18 L 31.5 12 L 45.5 8 Z M 44 12 Q 34 14 28 19 Q 16 27 12 44 L 12 57 Q 14 66 19 73 Q 27 84 44 88 L 57 88 Q 66 86 73 81 Q 84 73 88 57 L 88 44 Q 86 34 81 28 Q 74 19 64 14 Q 56 11 44 12 Z " />
    <path fill="rgb(193,224,0)" stroke="rgb(193,224,0)" stroke-width="1" opacity="1"
        d="M 43.5 12 L 48 12.5 L 43.5 13 L 43.5 12 Z " />
    <path fill="rgb(193,224,0)" stroke="rgb(193,224,0)" stroke-width="1" opacity="1"
        d="M 53.5 12 L 57 12.5 L 53.5 13 L 53.5 12 Z " />
    <path fill="rgb(193,224,0)" stroke="rgb(193,224,0)" stroke-width="1" opacity="1"
        d="M 69.5 17 L 70.5 19 L 69.5 17 Z " />
    <path fill="rgb(193,224,0)" stroke="rgb(193,224,0)" stroke-width="1" opacity="1"
        d="M 27.5 19 L 25.5 22 L 27.5 19 Z " />
    <path fill="rgb(193,224,0)" stroke="rgb(193,224,0)" stroke-width="1" opacity="1"
        d="M 72.5 19 L 74.5 22 L 72.5 19 Z " />
    <path fill="rgb(193,224,0)" stroke="rgb(193,224,0)" stroke-width="1" opacity="1"
        d="M 21.5 25 L 19.5 28 L 21.5 25 Z " />
    <path fill="rgb(193,224,0)" stroke="rgb(193,224,0)" stroke-width="1" opacity="1"
        d="M 78.5 25 L 80.5 28 L 78.5 25 Z " />
    <path fill="rgb(193,224,0)" stroke="rgb(193,224,0)" stroke-width="1" opacity="1"
        d="M 18.5 29 L 17.5 31 L 18.5 29 Z " />
    <path fill="rgb(193,224,0)" stroke="rgb(193,224,0)" stroke-width="1" opacity="1"
        d="M 12.5 43 L 13 46.5 L 12 46.5 L 12.5 43 Z " />
    <path fill="rgb(193,224,0)" stroke="rgb(193,224,0)" stroke-width="1" opacity="1"
        d="M 87.5 43 L 88 47.5 L 87 47.5 L 87.5 43 Z " />
    <path fill="rgb(193,224,0)" stroke="rgb(193,224,0)" stroke-width="1" opacity="1"
        d="M 12.5 52 L 13 56.5 L 12 56.5 L 12.5 52 Z " />
    <path fill="rgb(193,224,0)" stroke="rgb(193,224,0)" stroke-width="1" opacity="1"
        d="M 87.5 53 L 88 56.5 L 87 56.5 L 87.5 53 Z " />
    <path fill="rgb(193,224,0)" stroke="rgb(193,224,0)" stroke-width="1" opacity="1"
        d="M 82.5 69 L 81.5 71 L 82.5 69 Z " />
    <path fill="rgb(193,224,0)" stroke="rgb(193,224,0)" stroke-width="1" opacity="1"
        d="M 19.5 72 L 21.5 75 L 19.5 72 Z " />
    <path fill="rgb(193,224,0)" stroke="rgb(193,224,0)" stroke-width="1" opacity="1"
        d="M 80.5 72 L 78.5 75 L 80.5 72 Z " />
    <path fill="rgb(193,224,0)" stroke="rgb(193,224,0)" stroke-width="1" opacity="1"
        d="M 25.5 78 L 27.5 81 L 25.5 78 Z " />
    <path fill="rgb(193,224,0)" stroke="rgb(193,224,0)" stroke-width="1" opacity="1"
        d="M 74.5 78 L 72.5 81 L 74.5 78 Z " />
    <path fill="rgb(193,224,0)" stroke="rgb(193,224,0)" stroke-width="1" opacity="1"
        d="M 29.5 81 L 30.5 83 L 29.5 81 Z " />
    <path fill="rgb(193,224,0)" stroke="rgb(193,224,0)" stroke-width="1" opacity="1"
        d="M 43.5 87 L 47 87.5 L 43.5 88 L 43.5 87 Z " />
    <path fill="rgb(193,224,0)" stroke="rgb(193,224,0)" stroke-width="1" opacity="1"
        d="M 52.5 87 L 57 87.5 L 52.5 88 L 52.5 87 Z " />
    <path fill="rgb(255,255,0)" stroke="rgb(255,255,0)" stroke-width="1" opacity="1"
        d="M 48.5 12 Q 68.6 12.9 78 24.5 L 86 37.5 L 88 52.5 L 85 64.5 L 75.5 78 L 62.5 86 L 47.5 88 L 35.5 85 L 22 75.5 L 14 62.5 L 12 47.5 L 15 35.5 L 24.5 22 L 37.5 14 L 48.5 12 Z " />
    <path fill="rgb(0,127,0)" stroke="rgb(0,127,0)" stroke-width="1" opacity="0.403921568627451"
        d="M 42.5 8 L 45 8.5 L 42.5 9 L 42.5 8 Z " />
    <path fill="rgb(0,127,0)" stroke="rgb(0,127,0)" stroke-width="1" opacity="0.403921568627451"
        d="M 55.5 8 L 58 8.5 L 55.5 9 L 55.5 8 Z " />
    <path fill="rgb(0,127,0)" stroke="rgb(0,127,0)" stroke-width="1" opacity="0.403921568627451"
        d="M 24.5 16 L 23.5 18 L 24.5 16 Z " />
    <path fill="rgb(0,127,0)" stroke="rgb(0,127,0)" stroke-width="1" opacity="0.403921568627451"
        d="M 75.5 16 L 76.5 18 L 75.5 16 Z " />
    <path fill="rgb(0,127,0)" stroke="rgb(0,127,0)" stroke-width="1" opacity="0.403921568627451"
        d="M 17.5 23 L 16.5 25 L 17.5 23 Z " />
    <path fill="rgb(0,127,0)" stroke="rgb(0,127,0)" stroke-width="1" opacity="0.403921568627451"
        d="M 82.5 23 L 83.5 25 L 82.5 23 Z " />
    <path fill="rgb(0,127,0)" stroke="rgb(0,127,0)" stroke-width="1" opacity="0.403921568627451"
        d="M 8.5 42 L 9 44.5 L 8 44.5 L 8.5 42 Z " />
    <path fill="rgb(0,127,0)" stroke="rgb(0,127,0)" stroke-width="1" opacity="0.403921568627451"
        d="M 91.5 42 L 92 44.5 L 91 44.5 L 91.5 42 Z " />
    <path fill="rgb(0,127,0)" stroke="rgb(0,127,0)" stroke-width="1" opacity="0.403921568627451"
        d="M 8.5 55 L 9 57.5 L 8 57.5 L 8.5 55 Z " />
    <path fill="rgb(0,127,0)" stroke="rgb(0,127,0)" stroke-width="1" opacity="0.403921568627451"
        d="M 91.5 55 L 92 57.5 L 91 57.5 L 91.5 55 Z " />
    <path fill="rgb(0,127,0)" stroke="rgb(0,127,0)" stroke-width="1" opacity="0.403921568627451"
        d="M 16.5 75 L 17.5 77 L 16.5 75 Z " />
    <path fill="rgb(0,127,0)" stroke="rgb(0,127,0)" stroke-width="1" opacity="0.403921568627451"
        d="M 83.5 75 L 82.5 77 L 83.5 75 Z " />
    <path fill="rgb(0,127,0)" stroke="rgb(0,127,0)" stroke-width="1" opacity="0.403921568627451"
        d="M 23.5 82 L 24.5 84 L 23.5 82 Z " />
    <path fill="rgb(0,127,0)" stroke="rgb(0,127,0)" stroke-width="1" opacity="0.403921568627451"
        d="M 76.5 82 L 75.5 84 L 76.5 82 Z " />
    <path fill="rgb(0,127,0)" stroke="rgb(0,127,0)" stroke-width="1" opacity="0.403921568627451"
        d="M 42.5 91 L 45 91.5 L 42.5 92 L 42.5 91 Z " />
    <path fill="rgb(0,127,0)" stroke="rgb(0,127,0)" stroke-width="1" opacity="0.403921568627451"
        d="M 55.5 91 L 58 91.5 L 55.5 92 L 55.5 91 Z " />
    <path fill="rgb(0,127,0)" stroke="rgb(0,127,0)" stroke-width="1" opacity="0.10588235294117647"
        d="M 21.5 18 L 18.5 22 L 21.5 18 Z " />
    <path fill="rgb(0,127,0)" stroke="rgb(0,127,0)" stroke-width="1" opacity="0.10588235294117647"
        d="M 78.5 18 L 81.5 22 L 78.5 18 Z " />
    <path fill="rgb(0,127,0)" stroke="rgb(0,127,0)" stroke-width="1" opacity="0.10588235294117647"
        d="M 18.5 78 L 21.5 82 L 18.5 78 Z " />
    <path fill="rgb(0,127,0)" stroke="rgb(0,127,0)" stroke-width="1" opacity="0.10588235294117647"
        d="M 81.5 78 L 78.5 82 L 81.5 78 Z " />
    <path fill="rgb(0,0,0)" stroke="rgb(0,0,0)" stroke-width="1" opacity="0"
        d="M 0 0 L 100 0 L 100 100 L 0 100 L 0 0 Z M 42 8 Q 29 11 22 18 Q 12 27 8 42 Q 6 54 9 63 L 18 79 Q 27 88 42 92 Q 54 94 63 91 L 79 82 Q 88 73 92 59 Q 94 46 91 38 L 82 22 Q 74 13 63 9 Q 54 6 42 8 Z " />
</svg>