<?xml version="1.0" encoding="UTF-8"?>
<!-- Generated by @neplex/vectorizer (Using visioncortex VTracer) -->
<svg version="1.1" xmlns="http://www.w3.org/2000/svg" width="100" height="100">
    <path
        d="M0 0 C9.77 6.53 16.77 15.64 19.14 27.3 C20.7 41.74 18.4 53.13 9.4 64.79 C2.19 72.8 -7.39 77.94 -18.18 78.68 C-32.38 79.25 -43.09 76 -53.86 66.3 C-63.03 56.05 -65.78 45.04 -65.24 31.61 C-64.46 20.39 -58.86 10.66 -50.51 3.2 C-35.5 -7.99 -16.2 -9.59 0 0 Z "
        fill="#FDFE00" transform="translate(72.86328125,13.6953125)" />
    <path
        d="M0 0 C9.77 6.53 16.77 15.64 19.14 27.3 C20.7 41.74 18.4 53.13 9.4 64.79 C2.19 72.8 -7.39 77.94 -18.18 78.68 C-32.38 79.25 -43.09 76 -53.86 66.3 C-63.03 56.05 -65.78 45.04 -65.24 31.61 C-64.46 20.39 -58.86 10.66 -50.51 3.2 C-35.5 -7.99 -16.2 -9.59 0 0 Z M-52.26 11.19 C-56.91 17.33 -60.56 24.53 -60.86 32.3 C-60.93 33.58 -60.99 34.86 -61.05 36.18 C-60.85 46.44 -57.27 55.95 -50.3 63.55 C-43.96 69.48 -35.63 73.97 -26.86 74.3 C-25.58 74.37 -24.31 74.43 -22.99 74.49 C-12.64 74.29 -3.11 70.69 4.45 63.55 C12.14 55.28 15.67 45.89 15.32 34.62 C14.45 23.43 10.33 14.55 2.05 6.84 C-14.52 -6.44 -37.83 -4.2 -52.26 11.19 Z "
        fill="#078300" transform="translate(72.86328125,13.6953125)" />
</svg>